<?xml version="1.0" standalone="no"?>
<!DOCTYPE svg PUBLIC "-//W3C//DTD SVG 20010904//EN"
 "http://www.w3.org/TR/2001/REC-SVG-20010904/DTD/svg10.dtd">
<svg version="1.0" xmlns="http://www.w3.org/2000/svg"
 width="720.000000pt" height="720.000000pt" viewBox="0 0 720.000000 720.000000"
 preserveAspectRatio="xMidYMid meet">
<metadata>
Created by potrace 1.15, written by Peter Selinger 2001-2017
</metadata>
<g transform="translate(0.000000,720.000000) scale(0.100000,-0.100000)"
fill="#000000" stroke="none">
<path d="M2521 5573 c-66 -35 -72 -61 -69 -295 3 -192 4 -209 24 -235 12 -15
38 -34 59 -42 51 -20 110 0 142 48 22 33 23 42 23 233 0 215 -7 252 -53 283
-39 25 -87 28 -126 8z"/>
<path d="M4560 5573 c-63 -32 -70 -61 -70 -289 0 -192 1 -202 23 -235 13 -19
39 -40 61 -48 33 -13 44 -13 79 0 77 27 82 42 85 274 3 176 1 210 -14 241 -31
65 -101 89 -164 57z"/>
<path d="M2216 5214 c-126 -31 -244 -121 -300 -232 -57 -113 -56 -75 -56
-1348 0 -798 3 -1189 11 -1230 32 -174 153 -307 328 -360 34 -11 197 -14 799
-14 415 0 757 2 759 4 3 2 -10 31 -29 63 -19 32 -44 79 -56 105 l-22 48 -681
0 c-489 0 -693 3 -720 12 -52 15 -113 68 -138 121 -21 43 -21 49 -21 1115 l0
1072 1505 0 1505 0 2 -432 3 -433 60 -30 c33 -16 81 -42 106 -57 26 -15 49
-24 53 -21 3 3 6 277 6 607 0 652 -2 671 -56 778 -36 71 -113 149 -183 187
-58 30 -196 69 -208 58 -3 -3 -7 -44 -8 -89 -3 -98 -31 -165 -91 -218 -53 -46
-99 -63 -171 -63 -124 1 -222 82 -252 210 -7 28 -12 71 -11 95 1 24 1 49 1 56
-1 9 -159 12 -756 12 -597 0 -755 -3 -756 -12 0 -7 0 -32 1 -56 7 -170 -109
-304 -263 -305 -72 0 -118 17 -171 63 -59 52 -88 120 -92 215 -1 44 -3 83 -3
88 -1 10 -26 8 -95 -9z"/>
<path d="M2320 4110 c0 -146 4 -230 10 -230 6 0 108 -1 228 -1 l217 0 0 228 0
228 -227 3 -228 2 0 -230z"/>
<path d="M3018 4330 c-1 -5 -1 -109 2 -230 l5 -220 225 -2 225 -2 0 230 0 229
-227 3 c-145 1 -227 -1 -230 -8z"/>
<path d="M3714 4327 c-2 -7 -3 -111 -2 -232 l3 -219 225 2 225 2 5 220 c3 121
4 225 2 230 -6 16 -451 13 -458 -3z"/>
<path d="M4414 4327 c-2 -7 -3 -111 -2 -230 l3 -218 218 0 c119 0 222 1 227 1
6 0 10 84 10 230 l0 230 -225 0 c-174 0 -227 -3 -231 -13z"/>
<path d="M2320 3410 l0 -230 230 0 230 0 0 230 0 230 -230 0 -230 0 0 -230z"/>
<path d="M3019 3628 c-2 -7 -3 -111 -1 -231 l3 -217 227 2 227 3 0 225 0 225
-226 3 c-176 2 -228 0 -230 -10z"/>
<path d="M3717 3633 c-11 -11 -8 -423 3 -423 5 0 18 17 29 38 54 104 203 257
331 339 32 21 59 41 59 46 1 9 -413 10 -422 0z"/>
<path d="M4555 3631 c-418 -67 -741 -379 -826 -796 -7 -33 -12 -114 -12 -180
0 -126 10 -197 45 -305 103 -322 380 -575 719 -657 55 -13 113 -18 224 -17
177 0 265 19 414 90 121 57 198 113 292 211 177 185 271 421 271 678 -1 460
-306 845 -762 961 -66 17 -295 26 -365 15z m325 -238 c211 -51 396 -198 495
-393 61 -121 80 -200 80 -340 0 -143 -17 -224 -71 -332 -44 -91 -81 -143 -150
-212 -72 -72 -125 -108 -219 -152 -107 -50 -192 -67 -320 -67 -334 1 -615 207
-723 531 -23 69 -26 92 -26 227 0 136 3 157 27 230 96 287 342 488 647 528 57
8 190 -2 260 -20z"/>
<path d="M4624 3226 l-34 -34 0 -283 c0 -264 1 -286 20 -316 30 -49 64 -55
327 -51 l232 3 30 29 c55 53 50 124 -12 170 -25 19 -46 22 -200 26 l-172 5 -5
211 c-5 227 -6 231 -61 260 -48 24 -87 18 -125 -20z"/>
<path d="M2320 2715 l0 -235 228 2 227 3 0 230 0 230 -227 3 -228 2 0 -235z"/>
<path d="M3020 2940 c0 -5 -1 -107 -1 -225 0 -118 1 -220 1 -225 0 -7 78 -9
228 -8 l227 3 0 230 0 230 -227 3 c-150 1 -228 -1 -228 -8z"/>
</g>
</svg>
